<svg xmlns="http://www.w3.org/2000/svg" viewBox="0 0 64 64" role="img" aria-labelledby="title">
  <title id="title">dbt</title>
  <rect width="64" height="64" rx="16" fill="#ff694b"/>
  <path d="M20 39.5c-4.1 0-7.4-3.3-7.4-7.5s3.3-7.5 7.4-7.5c2 0 3.7.7 5 2V16h5v23h-5v-1.5c-1.3 1.3-3 2-5 2Zm1-4.6c2.4 0 4.1-1.8 4.1-4.1s-1.7-4.1-4.1-4.1-4.1 1.8-4.1 4.1 1.7 4.1 4.1 4.1Z" fill="#fff"/>
  <path d="M38 39.5c-2 0-3.7-.7-5-2V39h-5V16h5v10.5c1.3-1.3 3-2 5-2 4.1 0 7.4 3.3 7.4 7.5s-3.3 7.5-7.4 7.5Zm-1-4.6c2.4 0 4.1-1.8 4.1-4.1s-1.7-4.1-4.1-4.1-4.1 1.8-4.1 4.1 1.7 4.1 4.1 4.1Z" fill="#fff"/>
  <path d="M48.8 39V27.1h-3.2v-4.2h3.2v-5h5v5h4.1v4.2h-4.1v8.4c0 1 .6 1.4 1.5 1.4.7 0 1.4-.2 2-.5v4.1c-.9.5-2 .8-3.4.8-3.2 0-5.1-1.6-5.1-5.3Z" fill="#fff"/>
  <circle cx="14" cy="48" r="2.5" fill="#2f80ed"/>
  <circle cx="24" cy="50" r="2.5" fill="#2f80ed"/>
  <circle cx="34" cy="48" r="2.5" fill="#2f80ed"/>
  <path d="M16.5 48.4 21.7 49.5M26.5 49.5 31.5 48.4" stroke="#2f80ed" stroke-width="1.6" stroke-linecap="round"/>
</svg>
