<svg width="64" height="64" viewBox="0 0 64 64" fill="none" xmlns="http://www.w3.org/2000/svg">
  <path d="M22.4 46.5H49.1C54.1 46.5 58.2 42.5 58.2 37.5C58.2 32.9 54.8 29 50.3 28.5C49.2 19.4 41.4 12.3 32 12.3C24.9 12.3 18.6 16.5 15.8 22.8C8.9 23.4 3.5 29.2 3.5 36.2C3.5 43.6 9.5 49.5 16.9 49.5H22.4V46.5Z" fill="white"/>
  <path d="M16 46.5C10.5 46.5 6 42.1 6 36.6C6 31.4 10 27.2 15.1 26.8L16.6 26.7L17.2 25.3C19.5 19.6 25.1 16 31.3 16C39.5 16 46.3 22.1 47 30.2L47.2 32.1H49.1C53.1 32.1 56.3 35.3 56.3 39.3C56.3 43.3 53.1 46.5 49.1 46.5H16Z" fill="#4285F4"/>
  <path d="M17.2 25.3C19.5 19.6 25.1 16 31.3 16C36 16 40.4 18.1 43.3 21.7L47 18C43.1 14.1 37.5 11.7 31.3 11.7C22.9 11.7 15.3 16.7 12 24.3L17.2 25.3Z" fill="#EA4335"/>
  <path d="M31.3 51H49.1C55.7 51 61 45.7 61 39.1C61 33 56.4 27.8 50.4 27.1C49.8 23.7 48.3 20.6 46.1 18L42.4 21.7C44.2 23.9 45.3 26.7 45.6 29.8L45.8 31.7H47.7C51.7 31.7 54.9 34.9 54.9 38.9C54.9 42.9 51.7 46.1 47.7 46.1H31.3V51Z" fill="#34A853"/>
  <path d="M16 51H31.3V46.1H16C10.5 46.1 6 41.7 6 36.2C6 31 10 26.8 15.1 26.4L16.6 26.3L17.2 24.9L12 23.9C5.1 24.8 0 30.6 0 37.7C0 45 5.9 51 13.3 51H16Z" fill="#FBBC04"/>
</svg>
